#!OML:ASF F:\VICON\USERDATA\INSTALL\rory3\rory3.ASF
:FULLY-SPECIFIED
:DEGREES
122
root 1.19659 16.4126 -18.0573 8.2716 0.639291 0.386082
lowerback 20.667 -0.67368 -0.85106
upperback 1.64383 -0.832377 2.35212
thorax -9.74437 -0.300149 3.30921
lowerneck -21.1406 -5.66119 -10.1647
upperneck 8.19058 -5.95378 8.42049
head 6.45716 -2.51986 3.67228
rclavicle 8.54774e-015 -7.55382e-015
rhumerus -28.8976 4.73957 -84.0248
rradius 64.8045
rwrist -0.931568
rhand -10.6682 16.7322
rfingers 7.12502
rthumb 15.3401 -12.6788
lclavicle 8.54774e-015 -7.55382e-015
lhumerus -29.8139 -4.2357 86.9107
lradius 60.8135
lwrist -0.0503068
lhand -17.8211 19.2957
lfingers 7.12502
lthumb 8.44298 49.1069
rfemur -36.637 -1.96157 21.6886
rtibia 57.4459
rfoot -22.5775 -9.21787
rtoes 2.28907
lfemur -37.4883 3.09056 -22.4015
ltibia 55.5779
lfoot -23.3124 0.711075
ltoes 2.00118
123
root 1.19776 16.3219 -18.1112 8.68865 0.760148 0.30532
lowerback 21.2449 -0.649622 -0.681341
upperback 1.70541 -0.755824 2.37596
thorax -9.99962 -0.266519 3.23119
lowerneck -21.5899 -5.69436 -10.0205
upperneck 7.75151 -5.95969 8.34646
head 6.37855 -2.51387 3.6187
rclavicle -7.95139e-016 -7.95139e-016
rhumerus -28.4406 4.7552 -83.885
rradius 65.9022
rwrist -0.974515
rhand -10.7007 16.9656
rfingers 7.12502
rthumb 15.3088 -12.4478
lclavicle -7.95139e-016 -7.95139e-016
lhumerus -29.4087 -4.18449 86.8567
lradius 62.0342
lwrist 0.008666
lhand -17.5634 20.5456
lfingers 7.12502
lthumb 8.69164 50.3466
rfemur -38.1669 -2.08884 21.8333
rtibia 58.9534
rfoot -22.8899 -9.19654
rtoes 4.10841
lfemur -39.0731 3.1651 -22.4035
ltibia 57.0993
lfoot -23.6926 0.683895
ltoes 1.62849
124
root 1.19811 16.2318 -18.165 9.03827 0.88686 0.239386
lowerback 21.7803 -0.647119 -0.590525
upperback 1.87868 -0.723318 2.42812
thorax -10.1013 -0.253166 3.23794
lowerneck -22.4135 -5.67083 -9.88716
upperneck 7.61015 -5.86628 8.27144
head 6.44479 -2.45196 3.57611
rclavicle 2.32578e-014 -1.43125e-014
rhumerus -27.8178 4.86419 -83.7482
rradius 67.0324
rwrist -1.0188
rhand -10.9084 17.0721
rfingers 7.12502
rthumb 15.1087 -12.3565
lclavicle 2.32578e-014 -1.43125e-014
lhumerus -28.7246 -4.0916 86.7536
lradius 63.1007
lwrist -0.0280696
lhand -17.0451 21.8132
lfingers 7.12502
lthumb 9.19184 51.5928
rfemur -39.6334 -2.27958 22.0419
rtibia 60.4209
rfoot -22.8336 -9.7307
rtoes 1.25887
lfemur -40.5696 3.15629 -22.3914
ltibia 58.6488
lfoot -24.1274 0.687899
ltoes 1.12361
125
root 1.19887 16.1314 -18.2162 9.47641 1.08353 0.0288941
lowerback 22.1897 -0.72031 -0.337822
upperback 2.00274 -0.744673 2.52383
thorax -10.1864 -0.271032 3.21386
lowerneck -22.9176 -5.62699 -9.75776
upperneck 7.33579 -5.76779 8.17383
head 6.41642 -2.39756 3.53098
rclavicle 2.98177e-015 -1.98785e-015
rhumerus -27.3308 5.13805 -83.6369
rradius 68.2616
rwrist -1.13687
rhand -11.102 17.0288
rfingers 7.12502
rthumb 14.9222 -12.4137
lclavicle 2.98177e-015 -1.98785e-015
lhumerus -28.1456 -4.00158 86.598
lradius 64.0901
lwrist -0.128439
lhand -17.4478 19.4001
lfingers 7.12502
lthumb 8.80324 49.1965
rfemur -41.1705 -2.50222 22.4834
rtibia 61.8459
rfoot -22.4167 -10.7644
rtoes -4.68288
lfemur -42.2252 3.14818 -22.2199
ltibia 60.2202
lfoot -24.4874 0.652853
ltoes 1.07248
126
root 1.2005 16.0288 -18.2627 10.0117 1.03151 -0.0951023
lowerback 22.6149 -0.651949 -0.204657
upperback 2.01433 -0.613012 2.56092
thorax -10.4135 -0.210681 3.15024
lowerneck -22.9963 -5.67217 -9.62066
upperneck 6.65939 -5.81371 8.07964
head 6.20498 -2.42258 3.4713
rclavicle -7.55382e-015 1.03368e-014
rhumerus -27.1396 5.24347 -83.479
rradius 69.5338
rwrist -1.24088
rhand -11.0384 17.0512
rfingers 7.12502
rthumb 14.9835 -12.3867
lclavicle -7.55382e-015 1.03368e-014
lhumerus -27.7863 -4.06923 86.5079
lradius 65.1926
lwrist -0.123784
lhand -17.5562 23.3152
lfingers 7.12502
lthumb 8.69867 53.116
rfemur -42.7771 -2.44845 22.7268
rtibia 63.2853
rfoot -22.4372 -11.2811
rtoes -7.29739
lfemur -43.9463 3.34835 -22.2093
ltibia 61.7424
lfoot -24.8261 0.739705
ltoes 0.698588
127
root 1.20561 15.9342 -18.3082 10.5413 0.885828 -0.1742
lowerback 23.0229 -0.544052 -0.0899597
upperback 2.03824 -0.435807 2.5805
thorax -10.6189 -0.129676 3.06119
lowerneck -22.987 -5.76828 -9.7535
upperneck 5.86519 -5.89025 8.2767
head 5.96476 -2.44815 3.54852
rclavicle 1.33186e-014 -8.74653e-015
rhumerus -26.977 5.42048 -83.2537
rradius 70.8838
rwrist -1.47378
rhand -11.1483 17.0918
rfingers 7.12502
rthumb 14.8777 -12.354
lclavicle 1.33186e-014 -8.74653e-015
lhumerus -27.4263 -4.18778 86.4597
lradius 66.4153
lwrist -0.0946715
lhand -17.5007 26.3832
lfingers 7.12502
lthumb 8.75223 56.1818
rfemur -44.3716 -2.33344 22.8606
rtibia 64.6941
rfoot -22.7717 -11.5599
rtoes -8.20704
lfemur -45.5344 3.59011 -22.2675
ltibia 63.2222
lfoot -25.2616 0.796975
ltoes 0.540442
128
root 1.2075 15.8353 -18.3624 11.0388 0.988339 -0.137931
lowerback 23.5087 -0.522819 -0.0693646
upperback 2.10391 -0.393481 2.6062
thorax -10.8105 -0.107735 3.07545
lowerneck -23.1307 -5.81999 -9.91146
upperneck 5.22425 -5.90112 8.55154
head 5.7962 -2.43282 3.66235
rclavicle 2.04748e-014 1.43125e-014
rhumerus -26.6712 5.57893 -83.0655
rradius 72.2116
rwrist -1.62287
rhand -11.5816 17.2463
rfingers 7.12502
rthumb 14.4602 -12.2299
lclavicle 2.04748e-014 1.43125e-014
lhumerus -26.9942 -4.24175 86.385
lradius 67.6571
lwrist 0.10967
lhand -17.2166 27.7938
lfingers 7.12502
lthumb 9.02638 57.5806
rfemur -45.9681 -2.43172 22.923
rtibia 66.1148
rfoot -23.0307 -11.8113
rtoes -8.4868
lfemur -47.1195 3.57108 -22.3914
ltibia 64.6189
lfoot -25.5747 0.793731
ltoes 0.684683
129
root 1.20736 15.7311 -18.4197 11.6576 1.27786 -0.194608
lowerback 23.9338 -0.600412 0.0702126
upperback 2.13022 -0.443485 2.67018
thorax -11.0089 -0.132823 3.09348
lowerneck -23.3545 -5.78628 -9.88702
upperneck 4.56692 -5.82292 8.68512
head 5.61579 -2.37966 3.71153
rclavicle 8.34896e-015 1.59028e-015
rhumerus -26.2972 5.8013 -82.9242
rradius 73.4934
rwrist -1.75434
rhand -12.0116 17.4215
rfingers 7.12502
rthumb 14.0458 -12.0839
lclavicle 8.34896e-015 1.59028e-015
lhumerus -26.6873 -4.23431 86.2896
lradius 68.8434
lwrist 0.591158
lhand -17.9224 26.7259
lfingers 7.12502
lthumb 8.34522 56.5411
rfemur -47.7344 -2.5797 23.1197
rtibia 67.5419
rfoot -23.1514 -12.0711
rtoes -8.43552
lfemur -48.9287 3.37566 -22.3729
ltibia 66.0004
lfoot -25.621 0.755207
ltoes 1.02139
130
root 1.20983 15.6384 -18.4746 12.3171 1.39924 -0.290167
lowerback 24.3753 -0.601439 0.239947
upperback 2.11213 -0.386784 2.70276
thorax -11.2724 -0.109934 3.02586
lowerneck -23.7088 -5.75232 -9.76807
upperneck 4.01684 -5.75256 8.71874
head 5.48305 -2.33311 3.71071
rclavicle 9.54166e-015 2.54444e-014
rhumerus -25.8652 5.93271 -82.7975
rradius 74.5468
rwrist -1.8026
rhand -12.3462 17.4343
rfingers 7.12502
rthumb 13.7234 -12.0932
lclavicle 9.54166e-015 2.54444e-014
lhumerus -26.4219 -4.23682 86.2133
lradius 70.0078
lwrist 0.783435
lhand -18.6911 24.6146
lfingers 7.12502
lthumb 7.60335 54.458
rfemur -49.5096 -2.55686 23.3268
rtibia 68.9127
rfoot -23.2856 -12.4563
rtoes -8.52619
lfemur -50.6937 3.30795 -22.3477
ltibia 67.3127
lfoot -25.7426 0.784938
ltoes 1.05713
131
root 1.21424 15.5372 -18.527 12.8858 1.30788 -0.340278
lowerback 24.915 -0.485964 0.32289
upperback 2.173 -0.20591 2.69392
thorax -11.5037 -0.0281982 2.9191
lowerneck -24.3655 -5.83897 -9.64817
upperneck 3.64154 -5.82083 8.72307
head 5.46078 -2.34909 3.67985
rclavicle -1.43125e-014 2.82274e-014
rhumerus -25.339 5.9743 -82.572
rradius 75.6129
rwrist -2.07293
rhand -12.2049 17.3979
rfingers 7.12502
rthumb 13.8595 -12.1204
lclavicle -1.43125e-014 2.82274e-014
lhumerus -25.9834 -4.26759 86.1329
lradius 71.1449
lwrist 0.810234
lhand -19.1391 23.3827
lfingers 7.12502
lthumb 7.17092 53.2412
rfemur -51.207 -2.38595 23.4144
rtibia 70.3417
rfoot -23.7538 -12.5078
rtoes -7.27448
lfemur -52.3302 3.39657 -22.4034
ltibia 68.6858
lfoot -26.106 0.806126
ltoes 0.943833
132
root 1.2158 15.4331 -18.5791 13.4974 1.1546 -0.398331
lowerback 25.325 -0.355356 0.356227
upperback 2.27214 -0.0240172 2.67341
thorax -11.6195 0.0539056 2.82104
lowerneck -24.8257 -5.88436 -9.50798
upperneck 3.03721 -5.85256 8.76894
head 5.33364 -2.34959 3.66679
rclavicle 9.14409e-015 -1.66979e-014
rhumerus -24.7777 6.088 -82.3668
rradius 76.6965
rwrist -2.39562
rhand -12.2086 17.3713
rfingers 7.12502
rthumb 13.8559 -12.1471
lclavicle 9.14409e-015 -1.66979e-014
lhumerus -25.4988 -4.33012 86.0304
lradius 72.2268
lwrist 1.14873
lhand -19.2965 24.1232
lfingers 7.12502
lthumb 7.0189 53.9868
rfemur -52.9446 -2.17141 23.5118
rtibia 71.7666
rfoot -24.3635 -12.3099
rtoes -4.93217
lfemur -54.0522 3.56918 -22.4696
ltibia 70.0899
lfoot -26.4269 0.763289
ltoes 1.03441
